<?xml version="1.0" encoding="UTF-8"?>
<svg width="64" height="64" viewBox="0 0 64 64" fill="none" xmlns="http://www.w3.org/2000/svg">
  <!-- Shield background -->
  <path d="M32 2C18.7452 2 8 12.7452 8 26C8 36.5 15.5 50.5 32 62C48.5 50.5 56 36.5 56 26C56 12.7452 45.2548 2 32 2Z" fill="#1E293B"/>
  
  <!-- Flame -->
  <path d="M32 20C32 20 28 16 24 20C20 24 21 32 21 32C21 32 19 30 19 27C19 24 22 20 26 20C30 20 32 20 32 20Z" fill="#FF6B35"/>
  <path d="M32 23C32 23 30 19 26 19C22 19 20 22 20 25C20 26 20 27 21 29C18 25 17 21 17 18C17 15 19 12 22 10C25 8 29 8 32 10C35 8 39 8 42 10C45 12 47 15 47 18C47 21 46 25 43 29C44 27 45 25 45 23C45 18 40 15 37 15C34 15 32 18 32 18V23Z" fill="#FFA630"/>
  
  <!-- Shield border -->
  <path d="M32 2C18.7452 2 8 12.7452 8 26C8 36.5 15.5 50.5 32 62C48.5 50.5 56 36.5 56 26C56 12.7452 45.2548 2 32 2Z" stroke="#F8F9FA" stroke-width="2"/>
</svg>
