<?xml version="1.0" encoding="UTF-8"?>
<svg width="512" height="512" viewBox="0 0 512 512" fill="none" xmlns="http://www.w3.org/2000/svg">
  <!-- Shield background -->
  <circle cx="256" cy="256" r="240" fill="#1E293B"/>
  
  <!-- Flame -->
  <path d="M256 160C256 160 232 136 192 160C152 184 158 256 158 256C158 256 138 240 138 208C138 176 162 160 202 160C242 160 256 160 256 160Z" fill="#FF6B35"/>
  <path d="M256 184C256 184 240 136 192 136C144 136 120 176 120 216C120 232 120 248 138 272C108 232 98 184 98 144C98 104 122 72 162 56C202 40 242 48 272 80C302 48 342 40 382 56C422 72 446 104 446 144C446 184 436 232 406 272C424 248 440 224 440 200C440 144 382 120 342 120C302 120 256 144 256 144V184Z" fill="#FFA630"/>
  
  <!-- Shield border -->
  <circle cx="256" cy="256" r="240" stroke="#F8F9FA" stroke-width="16"/>
</svg>
